<?xml version="1.0" encoding="utf-8"?>
<svg version="1.1" id="Ebene_1" xmlns="http://www.w3.org/2000/svg" xmlns:xlink="http://www.w3.org/1999/xlink" x="0px" y="0px"
	 viewBox="0 0 1024 1024" style="enable-background:new 0 0 1024 1024;" xml:space="preserve">
<style type="text/css">
	.st0{fill:#006699;}
	.st1{fill:#FFFFFF;}
	.st2{fill:#FFFFFF;stroke:#F2F2F2;stroke-width:1.052;stroke-miterlimit:10;}
	.st3{fill:#FF931E;}
	.st4{fill:#006699;stroke:#006699;stroke-width:2.2493;stroke-miterlimit:10;}
	.st5{fill:#006699;stroke:#006699;stroke-width:2.1446;stroke-miterlimit:10;}
</style>
<g>
	<path class="st0" d="M512,887.6c-50.7,0-99.9-9.9-146.2-29.5c-44.7-18.9-84.9-46-119.4-80.5c-34.5-34.5-61.6-74.7-80.5-119.4
		c-19.6-46.3-29.5-95.5-29.5-146.2s9.9-99.9,29.5-146.2c18.9-44.7,46-84.9,80.5-119.4c34.5-34.5,74.7-61.6,119.4-80.5
		c46.3-19.6,95.5-29.5,146.2-29.5c50.7,0,99.9,9.9,146.2,29.5c44.7,18.9,84.9,46,119.4,80.5c34.5,34.5,61.6,74.7,80.5,119.4
		c19.6,46.3,29.5,95.5,29.5,146.2s-9.9,99.9-29.5,146.2c-18.9,44.7-46,84.9-80.5,119.4s-74.7,61.6-119.4,80.5
		C611.9,877.6,562.7,887.6,512,887.6z"/>
	<path class="st1" d="M512,146.9c49.3,0,97.1,9.6,142.1,28.7c43.5,18.4,82.5,44.7,116,78.2c33.5,33.5,59.9,72.6,78.2,116
		c19,45,28.7,92.8,28.7,142.1s-9.6,97.1-28.7,142.1c-18.4,43.5-44.7,82.5-78.2,116c-33.5,33.5-72.6,59.9-116,78.2
		c-45,19-92.8,28.7-142.1,28.7s-97.1-9.6-142.1-28.7c-43.5-18.4-82.5-44.7-116-78.2c-33.5-33.5-59.9-72.6-78.2-116
		c-19-45-28.7-92.8-28.7-142.1s9.6-97.1,28.7-142.1c18.4-43.5,44.7-82.5,78.2-116c33.5-33.5,72.6-59.9,116-78.2
		C414.9,156.6,462.7,146.9,512,146.9 M512,125.9c-213.2,0-386.1,172.9-386.1,386.1S298.8,898.1,512,898.1S898.1,725.2,898.1,512
		S725.2,125.9,512,125.9L512,125.9z"/>
</g>
<g>
	<g>
		<path class="st1" d="M674.8,621.6c1.7,1.5,3.3,3.7,4.9,7.5h35.6c1.4-3.8,2.9-6,4.5-7.5H674.8z"/>
		<g>
			<path class="st1" d="M667.2,629.3c0.7,0.6,1.3,1.2,1.8,1.9c-0.6-0.7-1.1-1.5-1.7-2.2c1.3,1.7,2.3,3.6,3.1,5.5
				c1,1.6,2.3,2.9,3.9,3.9c1.7,1,3.5,1.5,5.5,1.5c10.4,0,20.8,0,31.2,0c1.5,0,2.9,0,4.4,0c2.4,0,4.7-0.9,6.6-2.3
				c2-1.5,3-3.3,3.9-5.6c0.2-0.4,0.3-0.9,0.5-1.3c-0.4,0.9-0.7,1.7-1.1,2.6c0.7-1.7,1.6-3.3,2.7-4.7c-0.6,0.7-1.1,1.5-1.7,2.2
				c0.4-0.5,0.8-1,1.3-1.5c3.1-3,3.9-7.9,2.2-11.9c-1.7-3.9-5.6-6.7-9.9-6.7c-5.1,0-10.1,0-15.2,0c-8.1,0-16.2,0-24.3,0
				c-1.9,0-3.7,0-5.6,0c-2.8,0-5.7,1.2-7.7,3.2c-1.9,1.9-3.3,5-3.2,7.7c0.3,5.9,4.8,10.9,10.9,10.9c5.1,0,10.1,0,15.2,0
				c8.1,0,16.2,0,24.3,0c1.9,0,3.7,0,5.6,0c-2.6-6.2-5.1-12.4-7.7-18.5c-3.6,3.4-5.6,7.7-7.3,12.3c3.5-2.7,7-5.3,10.5-8
				c-10.4,0-20.8,0-31.2,0c-1.5,0-2.9,0-4.4,0c3.1,1.8,6.3,3.6,9.4,5.4c-1.5-3.6-3.7-7-6.6-9.7c-2.1-1.9-4.8-3.2-7.7-3.2
				c-2.7,0-5.8,1.2-7.7,3.2c-1.9,2.1-3.3,4.8-3.2,7.7C664.1,624.4,665,627.3,667.2,629.3z"/>
		</g>
	</g>
	<g>
		<path class="st1" d="M715.4,626.6c-6.7,9.6-11.8,17-17.1,24.7c-5.7-7.6-11.4-15.1-18.5-24.7H715.4z"/>
		<g>
			<path class="st1" d="M706,621.1c-5.7,8.2-11.4,16.5-17.1,24.7c6.3,0,12.5,0,18.8,0c-6.2-8.2-12.3-16.5-18.5-24.7
				c-3.1,5.4-6.3,10.9-9.4,16.3c10.4,0,20.8,0,31.2,0c1.5,0,2.9,0,4.4,0c2.8,0,5.7-1.2,7.7-3.2c1.9-1.9,3.3-5,3.2-7.7
				c-0.3-5.9-4.8-10.9-10.9-10.9c-10.4,0-20.8,0-31.2,0c-1.5,0-2.9,0-4.4,0c-3.8,0-7.4,2.1-9.4,5.4c-1.8,3.1-2.3,8,0,11
				c6.2,8.2,12.4,16.4,18.5,24.7c1,1.6,2.3,2.9,3.9,3.9c1.7,1,3.5,1.5,5.5,1.5c4.1,0,7.1-2.2,9.4-5.4c5.7-8.2,11.4-16.5,17.1-24.7
				c1.5-2.2,1.8-5.9,1.1-8.4c-0.7-2.5-2.6-5.3-5-6.5c-2.5-1.3-5.6-2-8.4-1.1C709.7,617,707.7,618.7,706,621.1z"/>
		</g>
	</g>
</g>
<g>
	<g>
		<path class="st1" d="M738.7,582.1v44.8c0,1.6-1.3,2.9-2.9,4.6h-20.4c1.4-3.8,2.9-6,4.5-7.5h-45.1c1.7,1.5,4.9,7.5,4.9,7.5h-17.9
			c-1.6,0-2.9-1.3-2.9-2.9v-46.5c0-1.6,1.3-2.9,2.9-2.9h73.9C737.4,579.3,738.7,580.5,738.7,582.1z"/>
	</g>
</g>
<g>
	<path class="st1" d="M604.9,417c0.2,2.2-1,3.2-3.7,3.2c-1.5,0-5-1.4-10.7-4.2c-5.7-2.8-9.3-4.8-10.8-6
		c-18.1,12.3-39.5,18.4-64.3,18.4c-28.9,0-52.7-10.8-71.4-32.5c-17.7-20.5-26.6-45.4-26.6-74.8c0-30.1,8.7-55.4,26.1-75.8
		c18.4-21.6,42.3-32.5,71.8-32.5c15.1,0,29.7,3.6,43.7,10.7c14,7.1,25.2,16.9,33.6,29.3c1.3,1.9,1.9,3.3,1.9,4.3
		c0,1.4-3.5,5.9-10.5,13.6c-7,7.7-11.1,11.6-12.2,11.6c-0.8,0-3.8-3-9-9c-6.3-7.3-12.3-12.8-18-16.7c-9-6-18.3-9-28-9
		c-18.6,0-33.8,7.8-45.7,23.3c-10.8,14.2-16.2,30.9-16.2,50.2c0,18.8,5.6,35.4,16.7,49.9c12.1,15.6,27.3,23.5,45.6,23.5
		c18,0,34.5-4.9,49.6-14.8c-0.2-2.7-1-12-2.5-28c-1.2-11.4-1.8-20.7-1.8-27.9c0-1.7,1.1-2.5,3.2-2.5c1.9,0,4.7,0.1,8.4,0.4
		c3.7,0.2,6.5,0.4,8.4,0.4c1.9,0,4.7-0.1,8.6-0.3c3.8-0.2,6.7-0.3,8.6-0.3c2.1,0,3.1,1.6,3.1,4.7c0,3.4-0.1,8.6-0.4,15.6
		c-0.2,6.9-0.4,12.1-0.4,15.6c0,14.2,0.9,33.3,2.8,57.5L604.9,417z"/>
	<path class="st1" d="M753.6,352.4c0,20.6-6.7,38.1-20.2,52.7c-13.8,15-30.8,22.6-51.2,22.6c-20.5,0-37.6-7.5-51.3-22.4
		c-13.5-14.5-20.2-32-20.2-52.5c0-20.6,6.7-38.1,20.2-52.5c13.9-14.8,31-22.1,51.3-22.1c20.3,0,37.3,7.4,51,22.1
		C746.8,314.5,753.6,331.9,753.6,352.4z M722.5,352.7c0-12-3.7-22.2-11.1-30.7c-7.7-8.9-17.4-13.4-29.2-13.4
		c-11.8,0-21.6,4.4-29.4,13.3c-7.4,8.6-11.1,18.8-11.1,30.8c0,11.8,3.7,22,11.2,30.7c7.9,9.1,17.6,13.7,29.2,13.7
		c11.7,0,21.4-4.6,29.2-13.7C718.8,374.7,722.5,364.5,722.5,352.7z"/>
</g>
<g>
	<path class="st2" d="M426.8,522.5c-5.1-9-11.8-15.9-20.1-20.6c-3.2-1.8-4.8-3-4.8-3.7c0-0.6,1.6-2,4.8-4.2
		c6.3-4.2,11.6-10.5,16-18.8c4.4-8.3,6.6-16.2,6.6-23.9c0-22.2-8.4-38.6-25.1-49.2c-11.5-7.2-26.1-11.5-44.1-12.7v-14.9
		c0-1.2-1-2.2-2.2-2.2h-15.4c-1.2,0-2.2,1-2.2,2.2v14.5c-8.5,0-19.3,0-32.4-0.1v-14.4c0-1.2-1-2.2-2.2-2.2h-15.4
		c-1.2,0-2.2,1-2.2,2.2V389c-11.2,0-20-0.1-26.7-0.1c-2.7,0-4.1,1.2-4.1,3.6c0,12.9,0.6,32.3,1.7,58.1c1.2,25.8,1.7,45.2,1.7,58.1
		c0,12.2-0.6,30.6-1.7,55.1c-1.2,24.5-1.7,42.8-1.7,55.1c0,2.6,1.4,3.8,4.1,3.8c5.2,0,13-0.2,23.4-0.7c1.1,0,2.2-0.1,3.3-0.1v12.3
		c0,1.2,1,2.2,2.2,2.2h15.4c1.2,0,2.2-1,2.2-2.2v-12.7h0.1c7.1,0,17.8,0.2,32.3,0.5c0,0,0,0,0,0l0,12.2c0,1.2,1,2.2,2.2,2.2h15.4
		c1.2,0,2.2-1,2.2-2.2v-11.9c4.1,0.1,7.6,0.1,10.5,0.1c18.8,0,34.3-7.3,46.5-21.8c11.6-13.9,17.3-30.5,17.3-49.8
		C434.3,541,431.8,531.6,426.8,522.5z M296.5,438.3c0.3-7.3,0.5-12.8,0.5-16.5c0-2.8,9.3-4.2,28-4.2c19.2,0,33.1,1.6,41.5,4.8
		c14,5.4,21,16,21,31.7c0,19.7-17.8,29.5-53.5,29.5c-25.1,0-37.7-1.6-37.7-4.9c0-2.7-0.1-6.7-0.2-12c-0.1-5.3-0.2-9.3-0.2-11.8
		C296,451.2,296.2,445.7,296.5,438.3z M376.2,581.3c-7.7,4.6-20.3,6.9-37.9,6.9c-14,0-24.6-0.3-31.7-0.8c-7.1-0.6-10.7-1.4-10.7-2.5
		c0-4.1-0.1-10.3-0.3-18.5c-0.2-8.2-0.3-14.4-0.3-18.3v-27.4c0-3,14-4.5,42-4.5c16.2,0,28.2,1.5,35.9,4.7
		c12.1,4.8,18.2,14,18.2,27.5C391.4,564.3,386.3,575.3,376.2,581.3z"/>
	<path class="st2" d="M544.6,465.4c0,12.2-0.8,23.4-2.5,33.4c-0.3,2.6-1.4,3.8-3.3,3.8c-2.3,0-5.9-0.2-10.6-0.8
		c-4.7-0.5-8.3-0.8-10.8-0.8c-14,0-23,3.9-26.9,11.8c-2.3,4.8-3.5,14.7-3.5,29.9v18.3c0,6.2,0.2,15.7,0.8,28.4
		c0.5,12.7,0.8,22.1,0.8,28.4c0,3-1.3,4.5-3.8,4.5c-3.4,0-8.7-0.1-15.7-0.2c-7-0.1-12.2-0.2-15.7-0.2c-2.6,0-3.8-1.4-3.8-4.2
		c0-9,0.1-22.6,0.4-40.7c0.3-18.1,0.4-31.8,0.4-40.9c0-27.5-2.6-49.5-7.7-66.2c-0.2-0.9-0.3-1.6-0.3-2c0-1.3,0.7-2.3,2.2-2.8
		c4.1-0.4,9.9-1.1,17.4-2c12-2.2,17.6-3.3,16.7-3.3c1.8,0,2.9,3.3,3.5,9.8c0.6,6.6,1.6,9.8,3,9.8c0.2,0,0.5-0.1,0.8-0.3
		c4.6-2.9,9.1-5.8,13.7-8.7c5-3,10.1-5.2,15.3-6.7c4.3-1.3,9.9-2,16.7-2C540.3,461.9,544.6,463,544.6,465.4z"/>
	<path class="st2" d="M659.2,465.4c0,12.2-0.8,23.4-2.5,33.4c-0.3,2.6-1.4,3.8-3.3,3.8c-2.3,0-5.9-0.2-10.6-0.8
		c-4.7-0.5-8.3-0.8-10.8-0.8c-14,0-23,3.9-26.9,11.8c-2.3,4.8-3.5,14.7-3.5,29.9v18.3c0,6.2,0.2,15.7,0.8,28.4
		c0.5,12.7,0.7,22.1,0.7,28.4c0,3-1.3,4.5-3.8,4.5c-3.4,0-8.7-0.1-15.7-0.2c-7-0.1-12.2-0.2-15.7-0.2c-2.6,0-3.8-1.4-3.8-4.2
		c0-9,0.1-22.6,0.4-40.7c0.3-18.1,0.4-31.8,0.4-40.9c0-27.5-2.6-49.5-7.7-66.2c-0.2-0.9-0.3-1.6-0.3-2c0-1.3,0.7-2.3,2.2-2.8
		c4.1-0.4,9.9-1.1,17.3-2c12-2.2,17.6-3.3,16.7-3.3c1.8,0,2.9,3.3,3.5,9.8c0.6,6.6,1.6,9.8,3,9.8c0.2,0,0.5-0.1,0.8-0.3
		c4.6-2.9,9.1-5.8,13.7-8.7c5-3,10.1-5.2,15.3-6.7c4.3-1.3,9.9-2,16.7-2C654.9,461.9,659.2,463,659.2,465.4z"/>
	<path class="st2" d="M773.8,465.4c0,12.2-0.8,23.4-2.5,33.4c-0.3,2.6-1.4,3.8-3.3,3.8c-2.3,0-5.9-0.2-10.6-0.8
		c-4.7-0.5-8.3-0.8-10.8-0.8c-14,0-23,3.9-26.9,11.8c-2.3,4.8-3.5,14.7-3.5,29.9v18.3c0,6.2,0.2,15.7,0.8,28.4
		c0.5,12.7,0.7,22.1,0.7,28.4c0,3-1.3,4.5-3.8,4.5c-3.4,0-8.7-0.1-15.7-0.2c-7-0.1-12.2-0.2-15.7-0.2c-2.6,0-3.8-1.4-3.8-4.2
		c0-9,0.1-22.6,0.4-40.7c0.3-18.1,0.4-31.8,0.4-40.9c0-27.5-2.6-49.5-7.7-66.2c-0.2-0.9-0.3-1.6-0.3-2c0-1.3,0.7-2.3,2.2-2.8
		c4.1-0.4,9.9-1.1,17.3-2c12-2.2,17.6-3.3,16.7-3.3c1.8,0,2.9,3.3,3.5,9.8c0.6,6.6,1.6,9.8,3,9.8c0.2,0,0.5-0.1,0.8-0.3
		c4.6-2.9,9.1-5.8,13.7-8.7c5-3,10.1-5.2,15.3-6.7c4.3-1.3,9.9-2,16.7-2C769.5,461.9,773.8,463,773.8,465.4z"/>
</g>
<g>
	<g>
		<path class="st3" d="M262.9,703.8c14.2,0,28.3,0,42.5-0.1c33.9-0.1,67.7-0.1,101.6-0.2c40.9-0.1,81.9-0.1,122.8-0.2
			c35.5-0.1,71.1-0.1,106.6-0.2c17.2,0,34.5,0.5,51.6-0.1c0.2,0,0.5,0,0.7,0c8.5,0,16.6-7.4,16.2-16.2c-0.4-8.8-7.1-16.2-16.2-16.2
			c-14.2,0-28.3,0-42.5,0.1c-33.9,0.1-67.7,0.1-101.6,0.2c-40.9,0.1-81.9,0.1-122.8,0.2c-35.5,0.1-71.1,0.1-106.6,0.2
			c-17.2,0-34.5-0.5-51.6,0.1c-0.2,0-0.5,0-0.7,0c-8.5,0-16.6,7.4-16.2,16.2C247.1,696.4,253.8,703.8,262.9,703.8L262.9,703.8z"/>
	</g>
</g>
<g>
	<g>
		<path class="st3" d="M262.9,746.1c16.5,0,33,0,49.5-0.1c39.6-0.1,79.3-0.1,118.9-0.2c48-0.1,95.9-0.1,143.9-0.2
			c41.5-0.1,83-0.1,124.4-0.2c20.1,0,40.4,0.5,60.5-0.1c0.3,0,0.6,0,0.9,0c8.5,0,16.6-7.4,16.2-16.2c-0.4-8.8-7.1-16.2-16.2-16.2
			c-16.5,0-33,0-49.5,0.1c-39.6,0.1-79.3,0.1-118.9,0.2c-48,0.1-95.9,0.1-143.9,0.2c-41.5,0.1-83,0.1-124.4,0.2
			c-20.1,0-40.4-0.5-60.5,0.1c-0.3,0-0.6,0-0.9,0c-8.5,0-16.6,7.4-16.2,16.2C247.1,738.7,253.8,746.2,262.9,746.1L262.9,746.1z"/>
	</g>
</g>
<rect x="659" y="579.3" class="st1" width="79.7" height="54.8"/>
<rect x="645.3" y="578" class="st4" width="109.6" height="5"/>
<rect x="652.7" y="632.8" class="st5" width="99.6" height="5"/>
</svg>
