<svg id="Ebene_1" data-name="Ebene 1" xmlns="http://www.w3.org/2000/svg" viewBox="0 0 819.35 819.35"><circle cx="409.67" cy="409.67" r="409.67" style="fill:#069"/><path d="M685.7,627.8c2.19,1.09,3.28,4.37,5.46,7.65h37.15a15.24,15.24,0,0,1,4.37-7.65Z" transform="translate(-102.33 -102.33)" style="fill:#fff"/><path d="M680.24,634.36a22.89,22.89,0,0,1,4.37,6.55c1.09,2.19,4.37,4.37,6.55,4.37H729.4c2.18,0,5.46-1.09,6.55-4.37,1.1-2.18,2.19-4.37,3.28-6.55,4.37-5.47,1.09-13.11-5.46-13.11H685.7c-9.83,0-9.83,16.38,0,16.38h48.07c-2.19-4.37-3.28-8.74-5.46-13.11-2.19,3.28-4.37,5.47-6.56,9.84a23.14,23.14,0,0,0,6.56-4.37H690.07a22.72,22.72,0,0,1,6.56,4.37c-2.19-3.28-3.28-6.56-6.56-9.84C683.52,615.78,672.59,626.71,680.24,634.36Z" transform="translate(-102.33 -102.33)" style="fill:#fff"/><path d="M728.31,633.26c-6.56,9.84-12,18.58-18.57,26.22q-8.21-11.46-19.67-26.22Z" transform="translate(-102.33 -102.33)" style="fill:#fff"/><path d="M721.75,630c-6.55,8.74-12,17.48-18.57,26.21h14.2L697.72,630c-2.19,4.37-4.37,7.64-6.56,12H729.4c9.83,0,9.83-16.38,0-16.38H691.16c-5.46,0-10.92,6.55-6.55,12l19.66,26.22c3.28,4.37,9.84,5.46,14.21,0,6.55-8.74,12-17.48,18.57-26.22C741.42,628.89,727.21,621.25,721.75,630Z" transform="translate(-102.33 -102.33)" style="fill:#fff"/><path d="M753.43,586.29v48.07c0,2.18-1.09,3.27-3.27,4.37H728.31a15.24,15.24,0,0,1,4.37-7.65H684.61c2.18,1.09,5.46,7.65,5.46,7.65H671.5c-2.19,0-3.28-1.1-3.28-3.28V586.29q0-3.28,3.28-3.28h78.66C751.25,583,753.43,585.19,753.43,586.29Z" transform="translate(-102.33 -102.33)" style="fill:#fff"/><path d="M611.41,411.49c0,2.19-1.09,3.28-4.37,3.28-1.09,0-5.46-1.09-10.92-4.37s-9.83-5.46-12-6.55c-19.66,13.11-41.51,19.66-68.82,19.66-30.59,0-55.72-12-75.38-35-18.57-21.85-28.41-48.07-28.41-79.75s8.74-59,27.32-80.84c19.66-22.94,44.79-35,76.47-35a102.14,102.14,0,0,1,47,10.93c15.3,7.64,26.22,17.48,36,30.58,1.1,2.19,2.19,3.28,2.19,4.37s-3.28,6.56-10.93,14.21c-7.64,8.74-12,12-13.1,12s-4.37-3.27-9.84-9.83a131.35,131.35,0,0,0-18.57-17.48Q533.31,228,518.55,228c-19.66,0-36,8.74-48.06,25.13-12,15.29-17.48,32.77-17.48,53.53,0,19.66,5.46,37.14,17.48,52.44,13.11,16.38,29.49,25.12,48.06,25.12A98,98,0,0,0,571,368.89c0-3.28-1.09-13.11-2.18-29.5-1.09-12-2.19-21.85-2.19-29.5,0-2.18,1.1-2.18,3.28-2.18h35c2.18,0,3.28,2.18,3.28,5.46V346c0,15.29,1.09,34.95,3.27,61.17Z" transform="translate(-102.33 -102.33)" style="fill:#fff"/><path d="M768.73,342.67a79.36,79.36,0,0,1-21.85,55.71c-14.2,16.39-32.77,24-54.62,24s-40.42-7.65-54.63-24a82,82,0,0,1,0-111.43c14.21-15.29,32.78-24,54.63-24s39.32,7.65,54.62,24C762.17,302.25,768.73,320.82,768.73,342.67Zm-32.78,0c0-13.11-4.37-24-12-32.78-7.65-9.83-18.57-14.2-30.59-14.2a40.88,40.88,0,0,0-31.68,14.2c-7.65,8.74-12,19.67-12,32.78,0,12,4.37,22.94,12,32.77,8.74,9.83,18.57,14.2,30.59,14.2s22.94-4.37,30.59-14.2Q735.95,362.33,736,342.67Z" transform="translate(-102.33 -102.33)" style="fill:#fff"/><path d="M422.42,522.92a52.64,52.64,0,0,0-21.85-21.84c-3.28-2.19-5.46-3.28-5.46-4.37s2.18-2.19,5.46-4.37c6.55-4.37,12-10.93,17.48-19.67,4.37-8.74,6.55-17.48,6.55-25.13q0-36-26.22-52.43c-12-7.65-27.31-12-47-13.11V366.7a2.35,2.35,0,0,0-2.19-2.18H332.84a2.35,2.35,0,0,0-2.19,2.18V382H296.79V366.7a2.35,2.35,0,0,0-2.19-2.18H278.21A2.34,2.34,0,0,0,276,366.7v14.2H247.62c-3.27,0-4.37,1.1-4.37,4.37,0,14.21,1.1,33.87,2.19,61.18s2.18,48.07,2.18,61.18-1.09,32.77-2.18,59-2.19,45.89-2.19,59c0,2.18,1.1,4.37,4.37,4.37a238.66,238.66,0,0,0,25.13-1.1H276V642a2.35,2.35,0,0,0,2.18,2.19H294.6a2.36,2.36,0,0,0,2.19-2.19V628.89h0c7.64,0,18.57,0,33.86,1.1h0V643.1a2.35,2.35,0,0,0,2.19,2.18h16.38a2.35,2.35,0,0,0,2.19-2.18V630h10.92q29.51,0,49.16-23c12-15.29,18.58-32.77,18.58-52.43C430.07,542.59,427.88,532.76,422.42,522.92ZM283.68,433.34V415.86c0-3.27,9.83-4.37,29.49-4.37,20.76,0,35,2.19,43.7,5.47,15.29,5.46,21.85,17.48,21.85,33.86,0,20.76-18.57,31.68-56.81,31.68-26.22,0-40.42-2.18-40.42-5.46V450.82C283.68,447.54,283.68,442.08,283.68,433.34ZM367.8,585.19c-7.65,4.37-21.85,7.65-40.43,7.65-15.29,0-26.22,0-33.86-1.09s-10.93-1.09-10.93-2.19V520.74c0-3.28,15.3-4.37,44.79-4.37,17.48,0,29.5,2.18,38.24,5.46q19.67,8.19,19.66,29.5C384.18,567.72,378.72,579.73,367.8,585.19Z" transform="translate(-102.33 -102.33)" style="fill:#fff;stroke:#f2f2f2;stroke-miterlimit:10;stroke-width:0.07028850167989731px"/><path d="M547,462.84a312.68,312.68,0,0,1-2.19,35c0,2.18-1.09,4.37-3.27,4.37a45.37,45.37,0,0,1-10.93-1.09c-5.46,0-8.74-1.1-10.92-1.1-15.3,0-24,4.37-28.41,13.11-2.18,5.46-3.27,15.3-3.27,31.68v19.67c0,6.55,0,16.39,1.09,30.59,0,13.11,1.09,24,1.09,30.59,0,3.27-1.09,4.37-4.37,4.37H453c-2.19,0-4.37-1.1-4.37-4.37v-87.4c0-29.5-2.19-52.44-7.65-69.92v-2.18c0-1.1,1.09-2.19,2.18-3.28,4.37,0,10.93-1.09,18.58-2.19,13.11-2.18,18.57-3.27,17.48-3.27,2.18,0,3.27,3.27,3.27,10.92,1.1,6.56,2.19,10.93,3.28,10.93h1.09a99.12,99.12,0,0,1,14.21-8.74,51.37,51.37,0,0,1,16.38-6.56,76.22,76.22,0,0,1,17.48-2.18C542.59,458.47,547,459.56,547,462.84Z" transform="translate(-102.33 -102.33)" style="fill:#fff;stroke:#f2f2f2;stroke-miterlimit:10;stroke-width:0.07028850167989731px"/><path d="M668.22,462.84a315.3,315.3,0,0,1-2.18,35c0,2.18-1.1,4.37-3.28,4.37a45.25,45.25,0,0,1-10.92-1.09c-5.47,0-8.74-1.1-10.93-1.1-15.29,0-24,4.37-28.4,13.11-3.28,5.46-4.37,15.3-4.37,31.68v19.67c0,6.55,0,16.39,1.09,30.59,0,13.11,1.09,24,1.09,30.59,0,3.27-1.09,4.37-4.37,4.37H573.18c-2.19,0-4.37-1.1-4.37-4.37v-87.4c0-29.5-2.19-52.44-7.65-69.92v-2.18c0-1.1,1.09-2.19,2.19-3.28,4.37,0,10.92-1.09,18.57-2.19,13.11-2.18,18.57-3.27,17.48-3.27,2.18,0,3.27,3.27,3.27,10.92,1.1,6.56,2.19,10.93,3.28,10.93H607a99.12,99.12,0,0,1,14.21-8.74,51.37,51.37,0,0,1,16.38-6.56,76.22,76.22,0,0,1,17.48-2.18C663.85,458.47,668.22,459.56,668.22,462.84Z" transform="translate(-102.33 -102.33)" style="fill:#fff;stroke:#f2f2f2;stroke-miterlimit:10;stroke-width:0.07028850167989731px"/><path d="M790.58,462.84a312.68,312.68,0,0,1-2.19,35c0,2.18-1.09,4.37-3.27,4.37a45.37,45.37,0,0,1-10.93-1.09c-5.46,0-8.74-1.1-10.92-1.1-15.3,0-24,4.37-28.41,13.11-2.18,5.46-3.28,15.3-3.28,31.68v19.67c0,6.55,0,16.39,1.1,30.59,0,13.11,1.09,24,1.09,30.59,0,3.27-1.09,4.37-4.37,4.37H696.63c-2.19,0-4.37-1.1-4.37-4.37v-87.4c0-29.5-2.19-52.44-7.65-69.92v-2.18c0-1.1,1.09-2.19,2.18-3.28,4.37,0,10.93-1.09,18.58-2.19,13.11-2.18,18.57-3.27,17.48-3.27,2.18,0,3.27,3.27,3.27,10.92,1.09,6.56,2.19,10.93,3.28,10.93h1.09a99,99,0,0,1,14.2-8.74,51.51,51.51,0,0,1,16.39-6.56,76.22,76.22,0,0,1,17.48-2.18C786.21,458.47,790.58,459.56,790.58,462.84Z" transform="translate(-102.33 -102.33)" style="fill:#fff;stroke:#f2f2f2;stroke-miterlimit:10;stroke-width:0.07028850167989731px"/><path d="M247.62,717.38c150.76,0,301.52,0,452.28-1.09,24,0,24-37.14,0-37.14-150.76,0-301.52,0-452.28,1.09-22.94,0-22.94,37.14,0,37.14Z" transform="translate(-102.33 -102.33)" style="fill:#ff931e"/><path d="M247.62,762.17c175.89,0,352.87,0,528.76-1.09,24,0,24-37.14,0-37.14-175.89,0-352.87,0-528.76,1.09-22.94,0-22.94,37.14,0,37.14Z" transform="translate(-102.33 -102.33)" style="fill:#ff931e"/><rect x="565.9" y="480.68" width="84.12" height="57.9" style="fill:#fff"/><rect x="551.69" y="479.59" width="115.8" height="5.46" style="fill:#069;stroke:#069;stroke-miterlimit:10;stroke-width:0.15029999613761902px"/><rect x="559.34" y="537.49" width="105.97" height="5.46" style="fill:#069;stroke:#069;stroke-miterlimit:10;stroke-width:0.14329999685287476px"/></svg>
